<svg t="1622725312061" class="icon" viewBox="0 0 1024 1024" version="1.1" xmlns="http://www.w3.org/2000/svg" p-id="4020" width="200" height="200"><path d="M624.128 170.496c31.232 0 56.832 25.6 56.832 56.832v283.648c0 31.232-25.6 56.832-56.832 56.832s-56.832-25.6-56.832-56.832V226.816c0-31.232 25.6-56.32 56.832-56.32z" fill="#E94B37" p-id="4021"></path><path d="M567.296 680.96l283.648-283.648h-283.648V680.96z" fill="#E94B37" p-id="4022"></path><path d="M397.312 283.648c31.232 0 56.832 25.6 56.832 56.832v283.648c0 31.232-25.6 56.832-56.832 56.832s-56.832-25.6-56.832-56.832V340.48c0-31.232 25.088-56.832 56.832-56.832z" fill="#54BF13" p-id="4023"></path><path d="M453.632 170.496L169.984 454.144h283.648V170.496z" fill="#54BF13" p-id="4024"></path><path d="M56.832 226.816c31.232 0 56.832 25.6 56.832 56.832v567.296c0 31.232-25.6 56.832-56.832 56.832S0 882.176 0 850.944V283.648c0-31.232 25.6-56.832 56.832-56.832z" fill="#ACB2BE" p-id="4025"></path><path d="M56.832 794.112h907.776c31.232 0 56.832 25.6 56.832 56.832s-25.6 56.832-56.832 56.832H56.832c-31.232 0-56.832-25.6-56.832-56.832s25.6-56.832 56.832-56.832z" fill="#ACB2BE" p-id="4026"></path><path d="M964.608 226.816c31.232 0 56.832 25.6 56.832 56.832v567.296c0 31.232-25.6 56.832-56.832 56.832s-56.832-25.6-56.832-56.832V283.648c0-31.232 25.6-56.832 56.832-56.832z" p-id="4027"></path></svg>