<svg t="1622083625666" class="icon" viewBox="0 0 1024 1024" version="1.1" xmlns="http://www.w3.org/2000/svg" p-id="6265" width="200" height="200"><path d="M241.842973 643.183458c21.672486-34.656003 51.634448-63.619233 87.089437-83.893494V125.141129c0-68.313274 55.529504-123.942651 123.942651-123.942651C521.388082 1.198478 576.917585 56.727982 576.917585 125.141129V559.289964c35.454989 20.474008 65.416951 49.237491 87.089437 83.893494 24.668682 39.449917 37.752073 85.091973 37.752073 131.932508 0 66.415683-25.867161 128.936311-72.907442 175.976592-46.940408 46.940408-109.461036 72.907442-175.976592 72.907442-66.415683 0-129.036185-25.867161-175.976592-72.907442-46.940408-46.940408-72.907442-109.461036-72.907442-175.976592 0.099873-46.940408 13.183263-92.48259 37.851946-131.932508z m211.131961 339.768654C567.629377 982.952112 660.81108 889.670535 660.81108 775.016093c0-78.600215-43.644592-149.709939-113.755584-185.364674l-11.085926-5.692773V125.141129c0-45.841802-37.152833-82.994636-82.994636-82.994635-45.841802 0-82.994636 37.152833-82.994636 82.994635v458.91739l-11.185799 5.692773c-70.110992 35.654735-113.755584 106.764459-113.755584 185.364674 0.099873 114.454696 93.281576 207.836146 207.936019 207.836146z m0 0" fill="#8A8A8A" p-id="6266"></path><path d="M416.321467 666.953282V263.165903c0-20.174388 16.379206-36.653467 36.653467-36.653468 20.174388 0 36.653467 16.379206 36.653467 36.653468v403.687506c42.745733 15.080854 73.207061 55.829123 73.207062 103.568516 0 60.623037-49.137618 109.860529-109.860529 109.860529-60.623037 0-109.860529-49.137618-109.860528-109.860529 0-47.839267 30.661075-88.487662 73.207061-103.468643zM248.534478 134.728957c0-23.070711-42.146494-92.682337-42.146494-92.682336s-42.146494 69.711499-42.146494 92.682336c0 23.070711 18.776163 41.647128 42.146494 41.647128 23.370331 0.099873 42.146494-18.576417 42.146494-41.647128zM164.341364 502.861601c0-34.356383-62.920121-138.324393-62.920121-138.324392S38.600995 468.405345 38.600995 502.861601s28.164245 62.221008 62.920121 62.221009c34.656003 0 62.820248-27.864625 62.820248-62.221009zM868.747098 598.739881c67.314542 0 121.645567-53.931532 121.645568-120.546962s-121.645567-267.660197-121.645568-267.660197-121.645567 201.244514-121.645567 267.660197c0 66.61543 54.430898 120.546962 121.645567 120.546962z" p-id="6267"></path></svg>