<svg t="1622725366608" class="icon" viewBox="0 0 1024 1024" version="1.1" xmlns="http://www.w3.org/2000/svg" p-id="9665" width="200" height="200"><path d="M691.556 325.792c2.603-6.005 3.904-12.629 3.904-19.904 0-9.1-3.271-16.827-9.805-23.152-6.532-6.313-14.999-9.475-25.354-9.475-7.288 0-13.555 1.439-18.853 4.343-5.287 2.899-9.687 6.586-13.208 11.044-3.532 4.448-7.176 9.84-10.901 16.158a1633.46 1633.46 0 0 0-10.58 18.2l-89.951 148.292-100.534-157.326c-8.732-14.29-16.37-24.65-22.902-31.073-6.535-6.436-15.089-9.638-25.676-9.638-10.375 0-18.819 3.269-25.354 9.789-6.533 6.522-9.801 15.191-9.801 25.965 0 5.994 1.128 11.486 3.414 16.479 2.281 4.968 7.168 13.27 14.625 24.862l93.077 145.81H404.13c-29.491 0-44.205 9.543-44.205 28.603 0 19.476 14.713 29.233 44.205 29.233h70.032v44.764H404.13c-29.491 0-44.205 9.769-44.205 29.218 0 19.098 14.713 28.621 44.205 28.621h70.032v24.865c0 42.079 14.192 63.105 42.647 63.105 28.014 0 42.003-21.026 42.003-63.105v-24.865h70.349c29.264 0 43.896-9.523 43.896-28.621 0-19.449-14.632-29.218-43.896-29.218h-70.349v-44.764h70.349c29.264 0 43.896-9.758 43.896-29.233 0-19.06-14.632-28.603-43.896-28.603h-39.522l89.629-147.678c5.612-9.1 9.715-16.684 12.288-22.696z" fill="#040000" p-id="9666"></path><path d="M514.001 1009.749c-276.161 0-500.834-224.671-500.834-500.83 0-276.161 224.673-500.834 500.834-500.834s500.832 224.673 500.832 500.834c0 276.159-224.671 500.83-500.832 500.83z m0-928.499c-235.817 0-427.669 191.852-427.669 427.669 0 235.814 191.852 427.664 427.669 427.664 235.817 0 427.667-191.85 427.667-427.664 0-235.817-191.85-427.669-427.667-427.669z" p-id="9667"></path></svg>